%TF.GenerationSoftware,KiCad,Pcbnew,(5.1.9)-1*%
%TF.CreationDate,2021-03-04T15:37:01+01:00*%
%TF.ProjectId,Motherboard,4d6f7468-6572-4626-9f61-72642e6b6963,rev?*%
%TF.SameCoordinates,Original*%
%TF.FileFunction,Legend,Top*%
%TF.FilePolarity,Positive*%
%FSLAX46Y46*%
G04 Gerber Fmt 4.6, Leading zero omitted, Abs format (unit mm)*
G04 Created by KiCad (PCBNEW (5.1.9)-1) date 2021-03-04 15:37:01*
%MOMM*%
%LPD*%
G01*
G04 APERTURE LIST*
%ADD10C,0.120000*%
%ADD11C,0.300000*%
%ADD12C,0.150000*%
G04 APERTURE END LIST*
D10*
X128270000Y-109220000D02*
X128270000Y-119380000D01*
X146050000Y-109220000D02*
X128270000Y-109220000D01*
X146050000Y-119380000D02*
X146050000Y-109220000D01*
X128270000Y-119380000D02*
X146050000Y-119380000D01*
D11*
X130425714Y-112428571D02*
X129925714Y-111714285D01*
X129568571Y-112428571D02*
X129568571Y-110928571D01*
X130140000Y-110928571D01*
X130282857Y-111000000D01*
X130354285Y-111071428D01*
X130425714Y-111214285D01*
X130425714Y-111428571D01*
X130354285Y-111571428D01*
X130282857Y-111642857D01*
X130140000Y-111714285D01*
X129568571Y-111714285D01*
X131640000Y-112357142D02*
X131497142Y-112428571D01*
X131211428Y-112428571D01*
X131068571Y-112357142D01*
X130997142Y-112214285D01*
X130997142Y-111642857D01*
X131068571Y-111500000D01*
X131211428Y-111428571D01*
X131497142Y-111428571D01*
X131640000Y-111500000D01*
X131711428Y-111642857D01*
X131711428Y-111785714D01*
X130997142Y-111928571D01*
X132354285Y-112428571D02*
X132354285Y-111428571D01*
X132354285Y-111571428D02*
X132425714Y-111500000D01*
X132568571Y-111428571D01*
X132782857Y-111428571D01*
X132925714Y-111500000D01*
X132997142Y-111642857D01*
X132997142Y-112428571D01*
X132997142Y-111642857D02*
X133068571Y-111500000D01*
X133211428Y-111428571D01*
X133425714Y-111428571D01*
X133568571Y-111500000D01*
X133640000Y-111642857D01*
X133640000Y-112428571D01*
X134568571Y-112428571D02*
X134425714Y-112357142D01*
X134354285Y-112285714D01*
X134282857Y-112142857D01*
X134282857Y-111714285D01*
X134354285Y-111571428D01*
X134425714Y-111500000D01*
X134568571Y-111428571D01*
X134782857Y-111428571D01*
X134925714Y-111500000D01*
X134997142Y-111571428D01*
X135068571Y-111714285D01*
X135068571Y-112142857D01*
X134997142Y-112285714D01*
X134925714Y-112357142D01*
X134782857Y-112428571D01*
X134568571Y-112428571D01*
X135497142Y-111428571D02*
X136068571Y-111428571D01*
X135711428Y-110928571D02*
X135711428Y-112214285D01*
X135782857Y-112357142D01*
X135925714Y-112428571D01*
X136068571Y-112428571D01*
X137140000Y-112357142D02*
X136997142Y-112428571D01*
X136711428Y-112428571D01*
X136568571Y-112357142D01*
X136497142Y-112214285D01*
X136497142Y-111642857D01*
X136568571Y-111500000D01*
X136711428Y-111428571D01*
X136997142Y-111428571D01*
X137140000Y-111500000D01*
X137211428Y-111642857D01*
X137211428Y-111785714D01*
X136497142Y-111928571D01*
X139711428Y-112428571D02*
X138997142Y-112428571D01*
X138997142Y-110928571D01*
X140854285Y-112428571D02*
X140854285Y-111642857D01*
X140782857Y-111500000D01*
X140640000Y-111428571D01*
X140354285Y-111428571D01*
X140211428Y-111500000D01*
X140854285Y-112357142D02*
X140711428Y-112428571D01*
X140354285Y-112428571D01*
X140211428Y-112357142D01*
X140140000Y-112214285D01*
X140140000Y-112071428D01*
X140211428Y-111928571D01*
X140354285Y-111857142D01*
X140711428Y-111857142D01*
X140854285Y-111785714D01*
X141568571Y-112428571D02*
X141568571Y-110928571D01*
X141568571Y-111500000D02*
X141711428Y-111428571D01*
X141997142Y-111428571D01*
X142140000Y-111500000D01*
X142211428Y-111571428D01*
X142282857Y-111714285D01*
X142282857Y-112142857D01*
X142211428Y-112285714D01*
X142140000Y-112357142D01*
X141997142Y-112428571D01*
X141711428Y-112428571D01*
X141568571Y-112357142D01*
X130068571Y-113478571D02*
X130925714Y-113478571D01*
X130497142Y-114978571D02*
X130497142Y-113478571D01*
X131425714Y-113478571D02*
X131425714Y-114692857D01*
X131497142Y-114835714D01*
X131568571Y-114907142D01*
X131711428Y-114978571D01*
X131997142Y-114978571D01*
X132140000Y-114907142D01*
X132211428Y-114835714D01*
X132282857Y-114692857D01*
X132282857Y-113478571D01*
X134068571Y-113407142D02*
X132782857Y-115335714D01*
X135140000Y-114907142D02*
X134997142Y-114978571D01*
X134711428Y-114978571D01*
X134568571Y-114907142D01*
X134497142Y-114764285D01*
X134497142Y-114192857D01*
X134568571Y-114050000D01*
X134711428Y-113978571D01*
X134997142Y-113978571D01*
X135140000Y-114050000D01*
X135211428Y-114192857D01*
X135211428Y-114335714D01*
X134497142Y-114478571D01*
X136997142Y-114407142D02*
X138140000Y-114407142D01*
X139997142Y-114978571D02*
X139997142Y-113478571D01*
X141568571Y-114835714D02*
X141497142Y-114907142D01*
X141282857Y-114978571D01*
X141140000Y-114978571D01*
X140925714Y-114907142D01*
X140782857Y-114764285D01*
X140711428Y-114621428D01*
X140640000Y-114335714D01*
X140640000Y-114121428D01*
X140711428Y-113835714D01*
X140782857Y-113692857D01*
X140925714Y-113550000D01*
X141140000Y-113478571D01*
X141282857Y-113478571D01*
X141497142Y-113550000D01*
X141568571Y-113621428D01*
X134925714Y-117385714D02*
X134854285Y-117457142D01*
X134640000Y-117528571D01*
X134497142Y-117528571D01*
X134282857Y-117457142D01*
X134140000Y-117314285D01*
X134068571Y-117171428D01*
X133997142Y-116885714D01*
X133997142Y-116671428D01*
X134068571Y-116385714D01*
X134140000Y-116242857D01*
X134282857Y-116100000D01*
X134497142Y-116028571D01*
X134640000Y-116028571D01*
X134854285Y-116100000D01*
X134925714Y-116171428D01*
X135568571Y-117528571D02*
X135568571Y-116028571D01*
X136068571Y-117100000D01*
X136568571Y-116028571D01*
X136568571Y-117528571D01*
X137711428Y-116028571D02*
X137711428Y-117100000D01*
X137640000Y-117314285D01*
X137497142Y-117457142D01*
X137282857Y-117528571D01*
X137140000Y-117528571D01*
X232858571Y-116371428D02*
X234358571Y-115871428D01*
X232858571Y-115371428D01*
X234358571Y-114871428D02*
X232858571Y-114871428D01*
X233930000Y-114371428D01*
X232858571Y-113871428D01*
X234358571Y-113871428D01*
X233001428Y-113228571D02*
X232930000Y-113157142D01*
X232858571Y-113014285D01*
X232858571Y-112657142D01*
X232930000Y-112514285D01*
X233001428Y-112442857D01*
X233144285Y-112371428D01*
X233287142Y-112371428D01*
X233501428Y-112442857D01*
X234358571Y-113300000D01*
X234358571Y-112371428D01*
X223968571Y-116371428D02*
X225468571Y-115871428D01*
X223968571Y-115371428D01*
X225468571Y-114871428D02*
X223968571Y-114871428D01*
X225040000Y-114371428D01*
X223968571Y-113871428D01*
X225468571Y-113871428D01*
X225468571Y-112371428D02*
X225468571Y-113228571D01*
X225468571Y-112800000D02*
X223968571Y-112800000D01*
X224182857Y-112942857D01*
X224325714Y-113085714D01*
X224397142Y-113228571D01*
X215150000Y-115601428D02*
X215078571Y-115744285D01*
X215078571Y-115958571D01*
X215150000Y-116172857D01*
X215292857Y-116315714D01*
X215435714Y-116387142D01*
X215721428Y-116458571D01*
X215935714Y-116458571D01*
X216221428Y-116387142D01*
X216364285Y-116315714D01*
X216507142Y-116172857D01*
X216578571Y-115958571D01*
X216578571Y-115815714D01*
X216507142Y-115601428D01*
X216435714Y-115530000D01*
X215935714Y-115530000D01*
X215935714Y-115815714D01*
X215221428Y-114958571D02*
X215150000Y-114887142D01*
X215078571Y-114744285D01*
X215078571Y-114387142D01*
X215150000Y-114244285D01*
X215221428Y-114172857D01*
X215364285Y-114101428D01*
X215507142Y-114101428D01*
X215721428Y-114172857D01*
X216578571Y-115030000D01*
X216578571Y-114101428D01*
X215007142Y-112387142D02*
X216935714Y-113672857D01*
X215792857Y-111387142D02*
X215864285Y-111172857D01*
X215935714Y-111101428D01*
X216078571Y-111030000D01*
X216292857Y-111030000D01*
X216435714Y-111101428D01*
X216507142Y-111172857D01*
X216578571Y-111315714D01*
X216578571Y-111887142D01*
X215078571Y-111887142D01*
X215078571Y-111387142D01*
X215150000Y-111244285D01*
X215221428Y-111172857D01*
X215364285Y-111101428D01*
X215507142Y-111101428D01*
X215650000Y-111172857D01*
X215721428Y-111244285D01*
X215792857Y-111387142D01*
X215792857Y-111887142D01*
X215221428Y-110458571D02*
X215150000Y-110387142D01*
X215078571Y-110244285D01*
X215078571Y-109887142D01*
X215150000Y-109744285D01*
X215221428Y-109672857D01*
X215364285Y-109601428D01*
X215507142Y-109601428D01*
X215721428Y-109672857D01*
X216578571Y-110530000D01*
X216578571Y-109601428D01*
X206260000Y-115601428D02*
X206188571Y-115744285D01*
X206188571Y-115958571D01*
X206260000Y-116172857D01*
X206402857Y-116315714D01*
X206545714Y-116387142D01*
X206831428Y-116458571D01*
X207045714Y-116458571D01*
X207331428Y-116387142D01*
X207474285Y-116315714D01*
X207617142Y-116172857D01*
X207688571Y-115958571D01*
X207688571Y-115815714D01*
X207617142Y-115601428D01*
X207545714Y-115530000D01*
X207045714Y-115530000D01*
X207045714Y-115815714D01*
X206188571Y-115030000D02*
X206188571Y-114101428D01*
X206760000Y-114601428D01*
X206760000Y-114387142D01*
X206831428Y-114244285D01*
X206902857Y-114172857D01*
X207045714Y-114101428D01*
X207402857Y-114101428D01*
X207545714Y-114172857D01*
X207617142Y-114244285D01*
X207688571Y-114387142D01*
X207688571Y-114815714D01*
X207617142Y-114958571D01*
X207545714Y-115030000D01*
X206117142Y-112387142D02*
X208045714Y-113672857D01*
X206902857Y-111387142D02*
X206974285Y-111172857D01*
X207045714Y-111101428D01*
X207188571Y-111030000D01*
X207402857Y-111030000D01*
X207545714Y-111101428D01*
X207617142Y-111172857D01*
X207688571Y-111315714D01*
X207688571Y-111887142D01*
X206188571Y-111887142D01*
X206188571Y-111387142D01*
X206260000Y-111244285D01*
X206331428Y-111172857D01*
X206474285Y-111101428D01*
X206617142Y-111101428D01*
X206760000Y-111172857D01*
X206831428Y-111244285D01*
X206902857Y-111387142D01*
X206902857Y-111887142D01*
X206188571Y-110530000D02*
X206188571Y-109601428D01*
X206760000Y-110101428D01*
X206760000Y-109887142D01*
X206831428Y-109744285D01*
X206902857Y-109672857D01*
X207045714Y-109601428D01*
X207402857Y-109601428D01*
X207545714Y-109672857D01*
X207617142Y-109744285D01*
X207688571Y-109887142D01*
X207688571Y-110315714D01*
X207617142Y-110458571D01*
X207545714Y-110530000D01*
X197370000Y-115601428D02*
X197298571Y-115744285D01*
X197298571Y-115958571D01*
X197370000Y-116172857D01*
X197512857Y-116315714D01*
X197655714Y-116387142D01*
X197941428Y-116458571D01*
X198155714Y-116458571D01*
X198441428Y-116387142D01*
X198584285Y-116315714D01*
X198727142Y-116172857D01*
X198798571Y-115958571D01*
X198798571Y-115815714D01*
X198727142Y-115601428D01*
X198655714Y-115530000D01*
X198155714Y-115530000D01*
X198155714Y-115815714D01*
X198798571Y-114101428D02*
X198798571Y-114958571D01*
X198798571Y-114530000D02*
X197298571Y-114530000D01*
X197512857Y-114672857D01*
X197655714Y-114815714D01*
X197727142Y-114958571D01*
X197227142Y-112387142D02*
X199155714Y-113672857D01*
X198012857Y-111387142D02*
X198084285Y-111172857D01*
X198155714Y-111101428D01*
X198298571Y-111030000D01*
X198512857Y-111030000D01*
X198655714Y-111101428D01*
X198727142Y-111172857D01*
X198798571Y-111315714D01*
X198798571Y-111887142D01*
X197298571Y-111887142D01*
X197298571Y-111387142D01*
X197370000Y-111244285D01*
X197441428Y-111172857D01*
X197584285Y-111101428D01*
X197727142Y-111101428D01*
X197870000Y-111172857D01*
X197941428Y-111244285D01*
X198012857Y-111387142D01*
X198012857Y-111887142D01*
X198798571Y-109601428D02*
X198798571Y-110458571D01*
X198798571Y-110030000D02*
X197298571Y-110030000D01*
X197512857Y-110172857D01*
X197655714Y-110315714D01*
X197727142Y-110458571D01*
X181130000Y-99738571D02*
X181130000Y-98238571D01*
X181487142Y-98238571D01*
X181701428Y-98310000D01*
X181844285Y-98452857D01*
X181915714Y-98595714D01*
X181987142Y-98881428D01*
X181987142Y-99095714D01*
X181915714Y-99381428D01*
X181844285Y-99524285D01*
X181701428Y-99667142D01*
X181487142Y-99738571D01*
X181130000Y-99738571D01*
X182630000Y-98238571D02*
X182630000Y-99452857D01*
X182701428Y-99595714D01*
X182772857Y-99667142D01*
X182915714Y-99738571D01*
X183201428Y-99738571D01*
X183344285Y-99667142D01*
X183415714Y-99595714D01*
X183487142Y-99452857D01*
X183487142Y-98238571D01*
X183987142Y-98238571D02*
X184844285Y-98238571D01*
X184415714Y-99738571D02*
X184415714Y-98238571D01*
X101077142Y-115820000D02*
X101791428Y-115820000D01*
X100934285Y-116248571D02*
X101434285Y-114748571D01*
X101934285Y-116248571D01*
X103291428Y-116248571D02*
X102791428Y-115534285D01*
X102434285Y-116248571D02*
X102434285Y-114748571D01*
X103005714Y-114748571D01*
X103148571Y-114820000D01*
X103220000Y-114891428D01*
X103291428Y-115034285D01*
X103291428Y-115248571D01*
X103220000Y-115391428D01*
X103148571Y-115462857D01*
X103005714Y-115534285D01*
X102434285Y-115534285D01*
X103934285Y-116248571D02*
X103934285Y-114748571D01*
X104291428Y-114748571D01*
X104505714Y-114820000D01*
X104648571Y-114962857D01*
X104720000Y-115105714D01*
X104791428Y-115391428D01*
X104791428Y-115605714D01*
X104720000Y-115891428D01*
X104648571Y-116034285D01*
X104505714Y-116177142D01*
X104291428Y-116248571D01*
X103934285Y-116248571D01*
X105434285Y-114748571D02*
X105434285Y-115962857D01*
X105505714Y-116105714D01*
X105577142Y-116177142D01*
X105720000Y-116248571D01*
X106005714Y-116248571D01*
X106148571Y-116177142D01*
X106220000Y-116105714D01*
X106291428Y-115962857D01*
X106291428Y-114748571D01*
X107005714Y-116248571D02*
X107005714Y-114748571D01*
X107720000Y-116248571D02*
X107720000Y-114748571D01*
X108577142Y-116248571D01*
X108577142Y-114748571D01*
X109577142Y-114748571D02*
X109862857Y-114748571D01*
X110005714Y-114820000D01*
X110148571Y-114962857D01*
X110220000Y-115248571D01*
X110220000Y-115748571D01*
X110148571Y-116034285D01*
X110005714Y-116177142D01*
X109862857Y-116248571D01*
X109577142Y-116248571D01*
X109434285Y-116177142D01*
X109291428Y-116034285D01*
X109220000Y-115748571D01*
X109220000Y-115248571D01*
X109291428Y-114962857D01*
X109434285Y-114820000D01*
X109577142Y-114748571D01*
X112005714Y-116248571D02*
X112005714Y-114748571D01*
X112862857Y-116248571D01*
X112862857Y-114748571D01*
X113505714Y-115820000D02*
X114220000Y-115820000D01*
X113362857Y-116248571D02*
X113862857Y-114748571D01*
X114362857Y-116248571D01*
X114862857Y-116248571D02*
X114862857Y-114748571D01*
X115720000Y-116248571D01*
X115720000Y-114748571D01*
X116720000Y-114748571D02*
X117005714Y-114748571D01*
X117148571Y-114820000D01*
X117291428Y-114962857D01*
X117362857Y-115248571D01*
X117362857Y-115748571D01*
X117291428Y-116034285D01*
X117148571Y-116177142D01*
X117005714Y-116248571D01*
X116720000Y-116248571D01*
X116577142Y-116177142D01*
X116434285Y-116034285D01*
X116362857Y-115748571D01*
X116362857Y-115248571D01*
X116434285Y-114962857D01*
X116577142Y-114820000D01*
X116720000Y-114748571D01*
X75887142Y-80688571D02*
X75887142Y-79188571D01*
X76244285Y-79188571D01*
X76458571Y-79260000D01*
X76601428Y-79402857D01*
X76672857Y-79545714D01*
X76744285Y-79831428D01*
X76744285Y-80045714D01*
X76672857Y-80331428D01*
X76601428Y-80474285D01*
X76458571Y-80617142D01*
X76244285Y-80688571D01*
X75887142Y-80688571D01*
X78244285Y-80545714D02*
X78172857Y-80617142D01*
X77958571Y-80688571D01*
X77815714Y-80688571D01*
X77601428Y-80617142D01*
X77458571Y-80474285D01*
X77387142Y-80331428D01*
X77315714Y-80045714D01*
X77315714Y-79831428D01*
X77387142Y-79545714D01*
X77458571Y-79402857D01*
X77601428Y-79260000D01*
X77815714Y-79188571D01*
X77958571Y-79188571D01*
X78172857Y-79260000D01*
X78244285Y-79331428D01*
X79958571Y-80617142D02*
X80172857Y-80688571D01*
X80530000Y-80688571D01*
X80672857Y-80617142D01*
X80744285Y-80545714D01*
X80815714Y-80402857D01*
X80815714Y-80260000D01*
X80744285Y-80117142D01*
X80672857Y-80045714D01*
X80530000Y-79974285D01*
X80244285Y-79902857D01*
X80101428Y-79831428D01*
X80030000Y-79760000D01*
X79958571Y-79617142D01*
X79958571Y-79474285D01*
X80030000Y-79331428D01*
X80101428Y-79260000D01*
X80244285Y-79188571D01*
X80601428Y-79188571D01*
X80815714Y-79260000D01*
X81315714Y-79188571D02*
X81672857Y-80688571D01*
X81958571Y-79617142D01*
X82244285Y-80688571D01*
X82601428Y-79188571D01*
X83172857Y-79902857D02*
X83672857Y-79902857D01*
X83887142Y-80688571D02*
X83172857Y-80688571D01*
X83172857Y-79188571D01*
X83887142Y-79188571D01*
X84530000Y-79902857D02*
X85030000Y-79902857D01*
X85244285Y-80688571D02*
X84530000Y-80688571D01*
X84530000Y-79188571D01*
X85244285Y-79188571D01*
X85887142Y-80688571D02*
X85887142Y-79188571D01*
X86458571Y-79188571D01*
X86601428Y-79260000D01*
X86672857Y-79331428D01*
X86744285Y-79474285D01*
X86744285Y-79688571D01*
X86672857Y-79831428D01*
X86601428Y-79902857D01*
X86458571Y-79974285D01*
X85887142Y-79974285D01*
X82895714Y-52748571D02*
X82895714Y-51248571D01*
X83467142Y-51248571D01*
X83610000Y-51320000D01*
X83681428Y-51391428D01*
X83752857Y-51534285D01*
X83752857Y-51748571D01*
X83681428Y-51891428D01*
X83610000Y-51962857D01*
X83467142Y-52034285D01*
X82895714Y-52034285D01*
X84681428Y-51248571D02*
X84967142Y-51248571D01*
X85110000Y-51320000D01*
X85252857Y-51462857D01*
X85324285Y-51748571D01*
X85324285Y-52248571D01*
X85252857Y-52534285D01*
X85110000Y-52677142D01*
X84967142Y-52748571D01*
X84681428Y-52748571D01*
X84538571Y-52677142D01*
X84395714Y-52534285D01*
X84324285Y-52248571D01*
X84324285Y-51748571D01*
X84395714Y-51462857D01*
X84538571Y-51320000D01*
X84681428Y-51248571D01*
X85824285Y-51248571D02*
X86181428Y-52748571D01*
X86467142Y-51677142D01*
X86752857Y-52748571D01*
X87110000Y-51248571D01*
X87681428Y-51962857D02*
X88181428Y-51962857D01*
X88395714Y-52748571D02*
X87681428Y-52748571D01*
X87681428Y-51248571D01*
X88395714Y-51248571D01*
X89895714Y-52748571D02*
X89395714Y-52034285D01*
X89038571Y-52748571D02*
X89038571Y-51248571D01*
X89610000Y-51248571D01*
X89752857Y-51320000D01*
X89824285Y-51391428D01*
X89895714Y-51534285D01*
X89895714Y-51748571D01*
X89824285Y-51891428D01*
X89752857Y-51962857D01*
X89610000Y-52034285D01*
X89038571Y-52034285D01*
X224452857Y-48708571D02*
X224738571Y-48708571D01*
X224881428Y-48780000D01*
X225024285Y-48922857D01*
X225095714Y-49208571D01*
X225095714Y-49708571D01*
X225024285Y-49994285D01*
X224881428Y-50137142D01*
X224738571Y-50208571D01*
X224452857Y-50208571D01*
X224310000Y-50137142D01*
X224167142Y-49994285D01*
X224095714Y-49708571D01*
X224095714Y-49208571D01*
X224167142Y-48922857D01*
X224310000Y-48780000D01*
X224452857Y-48708571D01*
X225667142Y-50137142D02*
X225881428Y-50208571D01*
X226238571Y-50208571D01*
X226381428Y-50137142D01*
X226452857Y-50065714D01*
X226524285Y-49922857D01*
X226524285Y-49780000D01*
X226452857Y-49637142D01*
X226381428Y-49565714D01*
X226238571Y-49494285D01*
X225952857Y-49422857D01*
X225810000Y-49351428D01*
X225738571Y-49280000D01*
X225667142Y-49137142D01*
X225667142Y-48994285D01*
X225738571Y-48851428D01*
X225810000Y-48780000D01*
X225952857Y-48708571D01*
X226310000Y-48708571D01*
X226524285Y-48780000D01*
X228024285Y-50065714D02*
X227952857Y-50137142D01*
X227738571Y-50208571D01*
X227595714Y-50208571D01*
X227381428Y-50137142D01*
X227238571Y-49994285D01*
X227167142Y-49851428D01*
X227095714Y-49565714D01*
X227095714Y-49351428D01*
X227167142Y-49065714D01*
X227238571Y-48922857D01*
X227381428Y-48780000D01*
X227595714Y-48708571D01*
X227738571Y-48708571D01*
X227952857Y-48780000D01*
X228024285Y-48851428D01*
X181630000Y-48780000D02*
X181487142Y-48708571D01*
X181272857Y-48708571D01*
X181058571Y-48780000D01*
X180915714Y-48922857D01*
X180844285Y-49065714D01*
X180772857Y-49351428D01*
X180772857Y-49565714D01*
X180844285Y-49851428D01*
X180915714Y-49994285D01*
X181058571Y-50137142D01*
X181272857Y-50208571D01*
X181415714Y-50208571D01*
X181630000Y-50137142D01*
X181701428Y-50065714D01*
X181701428Y-49565714D01*
X181415714Y-49565714D01*
X182272857Y-48851428D02*
X182344285Y-48780000D01*
X182487142Y-48708571D01*
X182844285Y-48708571D01*
X182987142Y-48780000D01*
X183058571Y-48851428D01*
X183130000Y-48994285D01*
X183130000Y-49137142D01*
X183058571Y-49351428D01*
X182201428Y-50208571D01*
X183130000Y-50208571D01*
X183772857Y-49637142D02*
X184915714Y-49637142D01*
X184344285Y-50208571D02*
X184344285Y-49065714D01*
X200680000Y-48780000D02*
X200537142Y-48708571D01*
X200322857Y-48708571D01*
X200108571Y-48780000D01*
X199965714Y-48922857D01*
X199894285Y-49065714D01*
X199822857Y-49351428D01*
X199822857Y-49565714D01*
X199894285Y-49851428D01*
X199965714Y-49994285D01*
X200108571Y-50137142D01*
X200322857Y-50208571D01*
X200465714Y-50208571D01*
X200680000Y-50137142D01*
X200751428Y-50065714D01*
X200751428Y-49565714D01*
X200465714Y-49565714D01*
X201322857Y-48851428D02*
X201394285Y-48780000D01*
X201537142Y-48708571D01*
X201894285Y-48708571D01*
X202037142Y-48780000D01*
X202108571Y-48851428D01*
X202180000Y-48994285D01*
X202180000Y-49137142D01*
X202108571Y-49351428D01*
X201251428Y-50208571D01*
X202180000Y-50208571D01*
X202822857Y-49637142D02*
X203965714Y-49637142D01*
X157500000Y-48780000D02*
X157357142Y-48708571D01*
X157142857Y-48708571D01*
X156928571Y-48780000D01*
X156785714Y-48922857D01*
X156714285Y-49065714D01*
X156642857Y-49351428D01*
X156642857Y-49565714D01*
X156714285Y-49851428D01*
X156785714Y-49994285D01*
X156928571Y-50137142D01*
X157142857Y-50208571D01*
X157285714Y-50208571D01*
X157500000Y-50137142D01*
X157571428Y-50065714D01*
X157571428Y-49565714D01*
X157285714Y-49565714D01*
X159000000Y-50208571D02*
X158142857Y-50208571D01*
X158571428Y-50208571D02*
X158571428Y-48708571D01*
X158428571Y-48922857D01*
X158285714Y-49065714D01*
X158142857Y-49137142D01*
X159642857Y-49637142D02*
X160785714Y-49637142D01*
X138450000Y-48780000D02*
X138307142Y-48708571D01*
X138092857Y-48708571D01*
X137878571Y-48780000D01*
X137735714Y-48922857D01*
X137664285Y-49065714D01*
X137592857Y-49351428D01*
X137592857Y-49565714D01*
X137664285Y-49851428D01*
X137735714Y-49994285D01*
X137878571Y-50137142D01*
X138092857Y-50208571D01*
X138235714Y-50208571D01*
X138450000Y-50137142D01*
X138521428Y-50065714D01*
X138521428Y-49565714D01*
X138235714Y-49565714D01*
X139950000Y-50208571D02*
X139092857Y-50208571D01*
X139521428Y-50208571D02*
X139521428Y-48708571D01*
X139378571Y-48922857D01*
X139235714Y-49065714D01*
X139092857Y-49137142D01*
X140592857Y-49637142D02*
X141735714Y-49637142D01*
X141164285Y-50208571D02*
X141164285Y-49065714D01*
X113192857Y-50208571D02*
X113192857Y-48708571D01*
X113764285Y-48708571D01*
X113907142Y-48780000D01*
X113978571Y-48851428D01*
X114050000Y-48994285D01*
X114050000Y-49208571D01*
X113978571Y-49351428D01*
X113907142Y-49422857D01*
X113764285Y-49494285D01*
X113192857Y-49494285D01*
X114621428Y-48851428D02*
X114692857Y-48780000D01*
X114835714Y-48708571D01*
X115192857Y-48708571D01*
X115335714Y-48780000D01*
X115407142Y-48851428D01*
X115478571Y-48994285D01*
X115478571Y-49137142D01*
X115407142Y-49351428D01*
X114550000Y-50208571D01*
X115478571Y-50208571D01*
X94142857Y-50208571D02*
X94142857Y-48708571D01*
X94714285Y-48708571D01*
X94857142Y-48780000D01*
X94928571Y-48851428D01*
X95000000Y-48994285D01*
X95000000Y-49208571D01*
X94928571Y-49351428D01*
X94857142Y-49422857D01*
X94714285Y-49494285D01*
X94142857Y-49494285D01*
X96428571Y-50208571D02*
X95571428Y-50208571D01*
X96000000Y-50208571D02*
X96000000Y-48708571D01*
X95857142Y-48922857D01*
X95714285Y-49065714D01*
X95571428Y-49137142D01*
D10*
%TO.C,J16*%
X182880000Y-105350000D02*
X182880000Y-108010000D01*
X182880000Y-105350000D02*
X134560000Y-105350000D01*
X134560000Y-105350000D02*
X134560000Y-108010000D01*
X182880000Y-108010000D02*
X134560000Y-108010000D01*
X185480000Y-108010000D02*
X184150000Y-108010000D01*
X185480000Y-106680000D02*
X185480000Y-108010000D01*
%TO.C,J5*%
X137160000Y-102930000D02*
X137160000Y-100270000D01*
X137160000Y-102930000D02*
X185480000Y-102930000D01*
X185480000Y-102930000D02*
X185480000Y-100270000D01*
X137160000Y-100270000D02*
X185480000Y-100270000D01*
X134560000Y-100270000D02*
X135890000Y-100270000D01*
X134560000Y-101600000D02*
X134560000Y-100270000D01*
%TO.C,R3*%
X200560000Y-101060000D02*
X203300000Y-101060000D01*
X203300000Y-101060000D02*
X203300000Y-94520000D01*
X203300000Y-94520000D02*
X200560000Y-94520000D01*
X200560000Y-94520000D02*
X200560000Y-101060000D01*
X201930000Y-101830000D02*
X201930000Y-101060000D01*
X201930000Y-93750000D02*
X201930000Y-94520000D01*
%TO.C,R2*%
X236120000Y-101060000D02*
X238860000Y-101060000D01*
X238860000Y-101060000D02*
X238860000Y-94520000D01*
X238860000Y-94520000D02*
X236120000Y-94520000D01*
X236120000Y-94520000D02*
X236120000Y-101060000D01*
X237490000Y-101830000D02*
X237490000Y-101060000D01*
X237490000Y-93750000D02*
X237490000Y-94520000D01*
%TO.C,U4*%
X217110000Y-72660000D02*
G75*
G02*
X217110000Y-74660000I0J-1000000D01*
G01*
X217110000Y-74660000D02*
X217110000Y-75910000D01*
X217110000Y-75910000D02*
X237550000Y-75910000D01*
X237550000Y-75910000D02*
X237550000Y-71410000D01*
X237550000Y-71410000D02*
X217110000Y-71410000D01*
X217110000Y-71410000D02*
X217110000Y-72660000D01*
%TO.C,U3*%
X178586666Y-72660000D02*
G75*
G02*
X178586666Y-74660000I0J-1000000D01*
G01*
X178586666Y-74660000D02*
X178586666Y-75910000D01*
X178586666Y-75910000D02*
X199026666Y-75910000D01*
X199026666Y-75910000D02*
X199026666Y-71410000D01*
X199026666Y-71410000D02*
X178586666Y-71410000D01*
X178586666Y-71410000D02*
X178586666Y-72660000D01*
%TO.C,R4*%
X210820000Y-93750000D02*
X210820000Y-94520000D01*
X210820000Y-101830000D02*
X210820000Y-101060000D01*
X209450000Y-94520000D02*
X209450000Y-101060000D01*
X212190000Y-94520000D02*
X209450000Y-94520000D01*
X212190000Y-101060000D02*
X212190000Y-94520000D01*
X209450000Y-101060000D02*
X212190000Y-101060000D01*
%TO.C,R5*%
X219710000Y-93750000D02*
X219710000Y-94520000D01*
X219710000Y-101830000D02*
X219710000Y-101060000D01*
X218340000Y-94520000D02*
X218340000Y-101060000D01*
X221080000Y-94520000D02*
X218340000Y-94520000D01*
X221080000Y-101060000D02*
X221080000Y-94520000D01*
X218340000Y-101060000D02*
X221080000Y-101060000D01*
%TO.C,U2*%
X140063333Y-72660000D02*
G75*
G02*
X140063333Y-74660000I0J-1000000D01*
G01*
X140063333Y-74660000D02*
X140063333Y-75910000D01*
X140063333Y-75910000D02*
X160503333Y-75910000D01*
X160503333Y-75910000D02*
X160503333Y-71410000D01*
X160503333Y-71410000D02*
X140063333Y-71410000D01*
X140063333Y-71410000D02*
X140063333Y-72660000D01*
%TO.C,U1*%
X101540000Y-72660000D02*
G75*
G02*
X101540000Y-74660000I0J-1000000D01*
G01*
X101540000Y-74660000D02*
X101540000Y-75910000D01*
X101540000Y-75910000D02*
X121980000Y-75910000D01*
X121980000Y-75910000D02*
X121980000Y-71410000D01*
X121980000Y-71410000D02*
X101540000Y-71410000D01*
X101540000Y-71410000D02*
X101540000Y-72660000D01*
%TO.C,TB1*%
X111760000Y-97790000D02*
X114300000Y-97790000D01*
X114300000Y-97790000D02*
X114300000Y-95120000D01*
X111760000Y-95120000D02*
X73530000Y-95120000D01*
X116970000Y-95120000D02*
X114300000Y-95120000D01*
X114300000Y-110490000D02*
X114300000Y-113160000D01*
X114300000Y-110490000D02*
X76200000Y-110490000D01*
X76200000Y-110490000D02*
X76200000Y-113160000D01*
X111760000Y-97790000D02*
X111760000Y-95120000D01*
X111760000Y-97790000D02*
X76200000Y-97790000D01*
X76200000Y-97790000D02*
X76200000Y-95120000D01*
X73530000Y-95120000D02*
X73530000Y-113160000D01*
X73530000Y-113160000D02*
X116970000Y-113160000D01*
X116970000Y-113160000D02*
X116970000Y-95120000D01*
%TO.C,R1*%
X227230000Y-101060000D02*
X229970000Y-101060000D01*
X229970000Y-101060000D02*
X229970000Y-94520000D01*
X229970000Y-94520000D02*
X227230000Y-94520000D01*
X227230000Y-94520000D02*
X227230000Y-101060000D01*
X228600000Y-101830000D02*
X228600000Y-101060000D01*
X228600000Y-93750000D02*
X228600000Y-94520000D01*
%TO.C,J15*%
X218380000Y-116900000D02*
X221040000Y-116900000D01*
X218380000Y-114300000D02*
X218380000Y-116900000D01*
X221040000Y-114300000D02*
X221040000Y-116900000D01*
X218380000Y-114300000D02*
X221040000Y-114300000D01*
X218380000Y-113030000D02*
X218380000Y-111700000D01*
X218380000Y-111700000D02*
X219710000Y-111700000D01*
%TO.C,J14*%
X209490000Y-116900000D02*
X212150000Y-116900000D01*
X209490000Y-114300000D02*
X209490000Y-116900000D01*
X212150000Y-114300000D02*
X212150000Y-116900000D01*
X209490000Y-114300000D02*
X212150000Y-114300000D01*
X209490000Y-113030000D02*
X209490000Y-111700000D01*
X209490000Y-111700000D02*
X210820000Y-111700000D01*
%TO.C,J13*%
X200600000Y-116900000D02*
X203260000Y-116900000D01*
X200600000Y-114300000D02*
X200600000Y-116900000D01*
X203260000Y-114300000D02*
X203260000Y-116900000D01*
X200600000Y-114300000D02*
X203260000Y-114300000D01*
X200600000Y-113030000D02*
X200600000Y-111700000D01*
X200600000Y-111700000D02*
X201930000Y-111700000D01*
%TO.C,J12*%
X236160000Y-116900000D02*
X238820000Y-116900000D01*
X236160000Y-114300000D02*
X236160000Y-116900000D01*
X238820000Y-114300000D02*
X238820000Y-116900000D01*
X236160000Y-114300000D02*
X238820000Y-114300000D01*
X236160000Y-113030000D02*
X236160000Y-111700000D01*
X236160000Y-111700000D02*
X237490000Y-111700000D01*
%TO.C,J9*%
X227270000Y-116900000D02*
X229930000Y-116900000D01*
X227270000Y-114300000D02*
X227270000Y-116900000D01*
X229930000Y-114300000D02*
X229930000Y-116900000D01*
X227270000Y-114300000D02*
X229930000Y-114300000D01*
X227270000Y-113030000D02*
X227270000Y-111700000D01*
X227270000Y-111700000D02*
X228600000Y-111700000D01*
%TO.C,J6*%
X81160000Y-76990000D02*
X72660000Y-76990000D01*
X72660000Y-76990000D02*
X72660000Y-67790000D01*
X72660000Y-67790000D02*
X87360000Y-67790000D01*
X87360000Y-74890000D02*
X87360000Y-76990000D01*
X87360000Y-76990000D02*
X85560000Y-76990000D01*
X87660000Y-69190000D02*
X87660000Y-67490000D01*
X87660000Y-67490000D02*
X86060000Y-67490000D01*
X87360000Y-67790000D02*
X87360000Y-69890000D01*
%TO.C,J3*%
X81160000Y-63020000D02*
X72660000Y-63020000D01*
X72660000Y-63020000D02*
X72660000Y-53820000D01*
X72660000Y-53820000D02*
X87360000Y-53820000D01*
X87360000Y-60920000D02*
X87360000Y-63020000D01*
X87360000Y-63020000D02*
X85560000Y-63020000D01*
X87660000Y-55220000D02*
X87660000Y-53520000D01*
X87660000Y-53520000D02*
X86060000Y-53520000D01*
X87360000Y-53820000D02*
X87360000Y-55920000D01*
%TO.C,J16*%
D12*
X186372380Y-107489523D02*
X187086666Y-107489523D01*
X187229523Y-107537142D01*
X187324761Y-107632380D01*
X187372380Y-107775238D01*
X187372380Y-107870476D01*
X187372380Y-106489523D02*
X187372380Y-107060952D01*
X187372380Y-106775238D02*
X186372380Y-106775238D01*
X186515238Y-106870476D01*
X186610476Y-106965714D01*
X186658095Y-107060952D01*
X186372380Y-105632380D02*
X186372380Y-105822857D01*
X186420000Y-105918095D01*
X186467619Y-105965714D01*
X186610476Y-106060952D01*
X186800952Y-106108571D01*
X187181904Y-106108571D01*
X187277142Y-106060952D01*
X187324761Y-106013333D01*
X187372380Y-105918095D01*
X187372380Y-105727619D01*
X187324761Y-105632380D01*
X187277142Y-105584761D01*
X187181904Y-105537142D01*
X186943809Y-105537142D01*
X186848571Y-105584761D01*
X186800952Y-105632380D01*
X186753333Y-105727619D01*
X186753333Y-105918095D01*
X186800952Y-106013333D01*
X186848571Y-106060952D01*
X186943809Y-106108571D01*
%TO.C,J5*%
X132572380Y-101933333D02*
X133286666Y-101933333D01*
X133429523Y-101980952D01*
X133524761Y-102076190D01*
X133572380Y-102219047D01*
X133572380Y-102314285D01*
X132572380Y-100980952D02*
X132572380Y-101457142D01*
X133048571Y-101504761D01*
X133000952Y-101457142D01*
X132953333Y-101361904D01*
X132953333Y-101123809D01*
X133000952Y-101028571D01*
X133048571Y-100980952D01*
X133143809Y-100933333D01*
X133381904Y-100933333D01*
X133477142Y-100980952D01*
X133524761Y-101028571D01*
X133572380Y-101123809D01*
X133572380Y-101361904D01*
X133524761Y-101457142D01*
X133477142Y-101504761D01*
%TO.C,R3*%
X200012380Y-97956666D02*
X199536190Y-98290000D01*
X200012380Y-98528095D02*
X199012380Y-98528095D01*
X199012380Y-98147142D01*
X199060000Y-98051904D01*
X199107619Y-98004285D01*
X199202857Y-97956666D01*
X199345714Y-97956666D01*
X199440952Y-98004285D01*
X199488571Y-98051904D01*
X199536190Y-98147142D01*
X199536190Y-98528095D01*
X199012380Y-97623333D02*
X199012380Y-97004285D01*
X199393333Y-97337619D01*
X199393333Y-97194761D01*
X199440952Y-97099523D01*
X199488571Y-97051904D01*
X199583809Y-97004285D01*
X199821904Y-97004285D01*
X199917142Y-97051904D01*
X199964761Y-97099523D01*
X200012380Y-97194761D01*
X200012380Y-97480476D01*
X199964761Y-97575714D01*
X199917142Y-97623333D01*
%TO.C,R2*%
X235572380Y-97956666D02*
X235096190Y-98290000D01*
X235572380Y-98528095D02*
X234572380Y-98528095D01*
X234572380Y-98147142D01*
X234620000Y-98051904D01*
X234667619Y-98004285D01*
X234762857Y-97956666D01*
X234905714Y-97956666D01*
X235000952Y-98004285D01*
X235048571Y-98051904D01*
X235096190Y-98147142D01*
X235096190Y-98528095D01*
X234667619Y-97575714D02*
X234620000Y-97528095D01*
X234572380Y-97432857D01*
X234572380Y-97194761D01*
X234620000Y-97099523D01*
X234667619Y-97051904D01*
X234762857Y-97004285D01*
X234858095Y-97004285D01*
X235000952Y-97051904D01*
X235572380Y-97623333D01*
X235572380Y-97004285D01*
%TO.C,U4*%
X215562380Y-74421904D02*
X216371904Y-74421904D01*
X216467142Y-74374285D01*
X216514761Y-74326666D01*
X216562380Y-74231428D01*
X216562380Y-74040952D01*
X216514761Y-73945714D01*
X216467142Y-73898095D01*
X216371904Y-73850476D01*
X215562380Y-73850476D01*
X215895714Y-72945714D02*
X216562380Y-72945714D01*
X215514761Y-73183809D02*
X216229047Y-73421904D01*
X216229047Y-72802857D01*
%TO.C,U3*%
X177039046Y-74421904D02*
X177848570Y-74421904D01*
X177943808Y-74374285D01*
X177991427Y-74326666D01*
X178039046Y-74231428D01*
X178039046Y-74040952D01*
X177991427Y-73945714D01*
X177943808Y-73898095D01*
X177848570Y-73850476D01*
X177039046Y-73850476D01*
X177039046Y-73469523D02*
X177039046Y-72850476D01*
X177419999Y-73183809D01*
X177419999Y-73040952D01*
X177467618Y-72945714D01*
X177515237Y-72898095D01*
X177610475Y-72850476D01*
X177848570Y-72850476D01*
X177943808Y-72898095D01*
X177991427Y-72945714D01*
X178039046Y-73040952D01*
X178039046Y-73326666D01*
X177991427Y-73421904D01*
X177943808Y-73469523D01*
%TO.C,R4*%
X208902380Y-97956666D02*
X208426190Y-98290000D01*
X208902380Y-98528095D02*
X207902380Y-98528095D01*
X207902380Y-98147142D01*
X207950000Y-98051904D01*
X207997619Y-98004285D01*
X208092857Y-97956666D01*
X208235714Y-97956666D01*
X208330952Y-98004285D01*
X208378571Y-98051904D01*
X208426190Y-98147142D01*
X208426190Y-98528095D01*
X208235714Y-97099523D02*
X208902380Y-97099523D01*
X207854761Y-97337619D02*
X208569047Y-97575714D01*
X208569047Y-96956666D01*
%TO.C,R5*%
X217792380Y-97956666D02*
X217316190Y-98290000D01*
X217792380Y-98528095D02*
X216792380Y-98528095D01*
X216792380Y-98147142D01*
X216840000Y-98051904D01*
X216887619Y-98004285D01*
X216982857Y-97956666D01*
X217125714Y-97956666D01*
X217220952Y-98004285D01*
X217268571Y-98051904D01*
X217316190Y-98147142D01*
X217316190Y-98528095D01*
X216792380Y-97051904D02*
X216792380Y-97528095D01*
X217268571Y-97575714D01*
X217220952Y-97528095D01*
X217173333Y-97432857D01*
X217173333Y-97194761D01*
X217220952Y-97099523D01*
X217268571Y-97051904D01*
X217363809Y-97004285D01*
X217601904Y-97004285D01*
X217697142Y-97051904D01*
X217744761Y-97099523D01*
X217792380Y-97194761D01*
X217792380Y-97432857D01*
X217744761Y-97528095D01*
X217697142Y-97575714D01*
%TO.C,U2*%
X138515713Y-74421904D02*
X139325237Y-74421904D01*
X139420475Y-74374285D01*
X139468094Y-74326666D01*
X139515713Y-74231428D01*
X139515713Y-74040952D01*
X139468094Y-73945714D01*
X139420475Y-73898095D01*
X139325237Y-73850476D01*
X138515713Y-73850476D01*
X138610952Y-73421904D02*
X138563333Y-73374285D01*
X138515713Y-73279047D01*
X138515713Y-73040952D01*
X138563333Y-72945714D01*
X138610952Y-72898095D01*
X138706190Y-72850476D01*
X138801428Y-72850476D01*
X138944285Y-72898095D01*
X139515713Y-73469523D01*
X139515713Y-72850476D01*
%TO.C,U1*%
X99992380Y-74421904D02*
X100801904Y-74421904D01*
X100897142Y-74374285D01*
X100944761Y-74326666D01*
X100992380Y-74231428D01*
X100992380Y-74040952D01*
X100944761Y-73945714D01*
X100897142Y-73898095D01*
X100801904Y-73850476D01*
X99992380Y-73850476D01*
X100992380Y-72850476D02*
X100992380Y-73421904D01*
X100992380Y-73136190D02*
X99992380Y-73136190D01*
X100135238Y-73231428D01*
X100230476Y-73326666D01*
X100278095Y-73421904D01*
%TO.C,TB1*%
X117562380Y-105401904D02*
X117562380Y-104830476D01*
X118562380Y-105116190D02*
X117562380Y-105116190D01*
X118038571Y-104163809D02*
X118086190Y-104020952D01*
X118133809Y-103973333D01*
X118229047Y-103925714D01*
X118371904Y-103925714D01*
X118467142Y-103973333D01*
X118514761Y-104020952D01*
X118562380Y-104116190D01*
X118562380Y-104497142D01*
X117562380Y-104497142D01*
X117562380Y-104163809D01*
X117610000Y-104068571D01*
X117657619Y-104020952D01*
X117752857Y-103973333D01*
X117848095Y-103973333D01*
X117943333Y-104020952D01*
X117990952Y-104068571D01*
X118038571Y-104163809D01*
X118038571Y-104497142D01*
X118562380Y-102973333D02*
X118562380Y-103544761D01*
X118562380Y-103259047D02*
X117562380Y-103259047D01*
X117705238Y-103354285D01*
X117800476Y-103449523D01*
X117848095Y-103544761D01*
%TO.C,R1*%
X226682380Y-97956666D02*
X226206190Y-98290000D01*
X226682380Y-98528095D02*
X225682380Y-98528095D01*
X225682380Y-98147142D01*
X225730000Y-98051904D01*
X225777619Y-98004285D01*
X225872857Y-97956666D01*
X226015714Y-97956666D01*
X226110952Y-98004285D01*
X226158571Y-98051904D01*
X226206190Y-98147142D01*
X226206190Y-98528095D01*
X226682380Y-97004285D02*
X226682380Y-97575714D01*
X226682380Y-97290000D02*
X225682380Y-97290000D01*
X225825238Y-97385238D01*
X225920476Y-97480476D01*
X225968095Y-97575714D01*
%TO.C,J15*%
X218900476Y-110152380D02*
X218900476Y-110866666D01*
X218852857Y-111009523D01*
X218757619Y-111104761D01*
X218614761Y-111152380D01*
X218519523Y-111152380D01*
X219900476Y-111152380D02*
X219329047Y-111152380D01*
X219614761Y-111152380D02*
X219614761Y-110152380D01*
X219519523Y-110295238D01*
X219424285Y-110390476D01*
X219329047Y-110438095D01*
X220805238Y-110152380D02*
X220329047Y-110152380D01*
X220281428Y-110628571D01*
X220329047Y-110580952D01*
X220424285Y-110533333D01*
X220662380Y-110533333D01*
X220757619Y-110580952D01*
X220805238Y-110628571D01*
X220852857Y-110723809D01*
X220852857Y-110961904D01*
X220805238Y-111057142D01*
X220757619Y-111104761D01*
X220662380Y-111152380D01*
X220424285Y-111152380D01*
X220329047Y-111104761D01*
X220281428Y-111057142D01*
%TO.C,J14*%
X210010476Y-110152380D02*
X210010476Y-110866666D01*
X209962857Y-111009523D01*
X209867619Y-111104761D01*
X209724761Y-111152380D01*
X209629523Y-111152380D01*
X211010476Y-111152380D02*
X210439047Y-111152380D01*
X210724761Y-111152380D02*
X210724761Y-110152380D01*
X210629523Y-110295238D01*
X210534285Y-110390476D01*
X210439047Y-110438095D01*
X211867619Y-110485714D02*
X211867619Y-111152380D01*
X211629523Y-110104761D02*
X211391428Y-110819047D01*
X212010476Y-110819047D01*
%TO.C,J13*%
X201120476Y-110152380D02*
X201120476Y-110866666D01*
X201072857Y-111009523D01*
X200977619Y-111104761D01*
X200834761Y-111152380D01*
X200739523Y-111152380D01*
X202120476Y-111152380D02*
X201549047Y-111152380D01*
X201834761Y-111152380D02*
X201834761Y-110152380D01*
X201739523Y-110295238D01*
X201644285Y-110390476D01*
X201549047Y-110438095D01*
X202453809Y-110152380D02*
X203072857Y-110152380D01*
X202739523Y-110533333D01*
X202882380Y-110533333D01*
X202977619Y-110580952D01*
X203025238Y-110628571D01*
X203072857Y-110723809D01*
X203072857Y-110961904D01*
X203025238Y-111057142D01*
X202977619Y-111104761D01*
X202882380Y-111152380D01*
X202596666Y-111152380D01*
X202501428Y-111104761D01*
X202453809Y-111057142D01*
%TO.C,J12*%
X236680476Y-110152380D02*
X236680476Y-110866666D01*
X236632857Y-111009523D01*
X236537619Y-111104761D01*
X236394761Y-111152380D01*
X236299523Y-111152380D01*
X237680476Y-111152380D02*
X237109047Y-111152380D01*
X237394761Y-111152380D02*
X237394761Y-110152380D01*
X237299523Y-110295238D01*
X237204285Y-110390476D01*
X237109047Y-110438095D01*
X238061428Y-110247619D02*
X238109047Y-110200000D01*
X238204285Y-110152380D01*
X238442380Y-110152380D01*
X238537619Y-110200000D01*
X238585238Y-110247619D01*
X238632857Y-110342857D01*
X238632857Y-110438095D01*
X238585238Y-110580952D01*
X238013809Y-111152380D01*
X238632857Y-111152380D01*
%TO.C,J9*%
X228266666Y-110152380D02*
X228266666Y-110866666D01*
X228219047Y-111009523D01*
X228123809Y-111104761D01*
X227980952Y-111152380D01*
X227885714Y-111152380D01*
X228790476Y-111152380D02*
X228980952Y-111152380D01*
X229076190Y-111104761D01*
X229123809Y-111057142D01*
X229219047Y-110914285D01*
X229266666Y-110723809D01*
X229266666Y-110342857D01*
X229219047Y-110247619D01*
X229171428Y-110200000D01*
X229076190Y-110152380D01*
X228885714Y-110152380D01*
X228790476Y-110200000D01*
X228742857Y-110247619D01*
X228695238Y-110342857D01*
X228695238Y-110580952D01*
X228742857Y-110676190D01*
X228790476Y-110723809D01*
X228885714Y-110771428D01*
X229076190Y-110771428D01*
X229171428Y-110723809D01*
X229219047Y-110676190D01*
X229266666Y-110580952D01*
%TO.C,J6*%
X88312380Y-72723333D02*
X89026666Y-72723333D01*
X89169523Y-72770952D01*
X89264761Y-72866190D01*
X89312380Y-73009047D01*
X89312380Y-73104285D01*
X88312380Y-71818571D02*
X88312380Y-72009047D01*
X88360000Y-72104285D01*
X88407619Y-72151904D01*
X88550476Y-72247142D01*
X88740952Y-72294761D01*
X89121904Y-72294761D01*
X89217142Y-72247142D01*
X89264761Y-72199523D01*
X89312380Y-72104285D01*
X89312380Y-71913809D01*
X89264761Y-71818571D01*
X89217142Y-71770952D01*
X89121904Y-71723333D01*
X88883809Y-71723333D01*
X88788571Y-71770952D01*
X88740952Y-71818571D01*
X88693333Y-71913809D01*
X88693333Y-72104285D01*
X88740952Y-72199523D01*
X88788571Y-72247142D01*
X88883809Y-72294761D01*
%TO.C,J3*%
X88312380Y-58753333D02*
X89026666Y-58753333D01*
X89169523Y-58800952D01*
X89264761Y-58896190D01*
X89312380Y-59039047D01*
X89312380Y-59134285D01*
X88312380Y-58372380D02*
X88312380Y-57753333D01*
X88693333Y-58086666D01*
X88693333Y-57943809D01*
X88740952Y-57848571D01*
X88788571Y-57800952D01*
X88883809Y-57753333D01*
X89121904Y-57753333D01*
X89217142Y-57800952D01*
X89264761Y-57848571D01*
X89312380Y-57943809D01*
X89312380Y-58229523D01*
X89264761Y-58324761D01*
X89217142Y-58372380D01*
%TD*%
M02*
