%TF.GenerationSoftware,KiCad,Pcbnew,(5.1.9)-1*%
%TF.CreationDate,2021-03-04T15:37:01+01:00*%
%TF.ProjectId,Motherboard,4d6f7468-6572-4626-9f61-72642e6b6963,rev?*%
%TF.SameCoordinates,Original*%
%TF.FileFunction,Legend,Bot*%
%TF.FilePolarity,Positive*%
%FSLAX46Y46*%
G04 Gerber Fmt 4.6, Leading zero omitted, Abs format (unit mm)*
G04 Created by KiCad (PCBNEW (5.1.9)-1) date 2021-03-04 15:37:01*
%MOMM*%
%LPD*%
G01*
G04 APERTURE LIST*
%ADD10C,0.120000*%
%ADD11C,0.150000*%
G04 APERTURE END LIST*
D10*
%TO.C,J7*%
X148340000Y-53240000D02*
X148590000Y-52740000D01*
X148840000Y-53240000D02*
X148340000Y-53240000D01*
X148590000Y-52740000D02*
X148840000Y-53240000D01*
%TO.C,J11*%
X210570000Y-53240000D02*
X210820000Y-52740000D01*
X211070000Y-53240000D02*
X210570000Y-53240000D01*
X210820000Y-52740000D02*
X211070000Y-53240000D01*
%TO.C,J10*%
X167390000Y-53240000D02*
X167640000Y-52740000D01*
X167890000Y-53240000D02*
X167390000Y-53240000D01*
X167640000Y-52740000D02*
X167890000Y-53240000D01*
%TO.C,J8*%
X191520000Y-53240000D02*
X191770000Y-52740000D01*
X192020000Y-53240000D02*
X191520000Y-53240000D01*
X191770000Y-52740000D02*
X192020000Y-53240000D01*
%TO.C,J4*%
X122940000Y-53240000D02*
X123190000Y-52740000D01*
X123440000Y-53240000D02*
X122940000Y-53240000D01*
X123190000Y-52740000D02*
X123440000Y-53240000D01*
%TO.C,J2*%
X234260000Y-53240000D02*
X234510000Y-52740000D01*
X234760000Y-53240000D02*
X234260000Y-53240000D01*
X234510000Y-52740000D02*
X234760000Y-53240000D01*
%TO.C,J1*%
X103890000Y-53240000D02*
X104140000Y-52740000D01*
X104390000Y-53240000D02*
X103890000Y-53240000D01*
X104140000Y-52740000D02*
X104390000Y-53240000D01*
%TO.C,J7*%
D11*
X151923333Y-52942380D02*
X151923333Y-53656666D01*
X151970952Y-53799523D01*
X152066190Y-53894761D01*
X152209047Y-53942380D01*
X152304285Y-53942380D01*
X151542380Y-52942380D02*
X150875714Y-52942380D01*
X151304285Y-53942380D01*
%TO.C,J11*%
X214629523Y-52942380D02*
X214629523Y-53656666D01*
X214677142Y-53799523D01*
X214772380Y-53894761D01*
X214915238Y-53942380D01*
X215010476Y-53942380D01*
X213629523Y-53942380D02*
X214200952Y-53942380D01*
X213915238Y-53942380D02*
X213915238Y-52942380D01*
X214010476Y-53085238D01*
X214105714Y-53180476D01*
X214200952Y-53228095D01*
X212677142Y-53942380D02*
X213248571Y-53942380D01*
X212962857Y-53942380D02*
X212962857Y-52942380D01*
X213058095Y-53085238D01*
X213153333Y-53180476D01*
X213248571Y-53228095D01*
%TO.C,J10*%
X171449523Y-52942380D02*
X171449523Y-53656666D01*
X171497142Y-53799523D01*
X171592380Y-53894761D01*
X171735238Y-53942380D01*
X171830476Y-53942380D01*
X170449523Y-53942380D02*
X171020952Y-53942380D01*
X170735238Y-53942380D02*
X170735238Y-52942380D01*
X170830476Y-53085238D01*
X170925714Y-53180476D01*
X171020952Y-53228095D01*
X169830476Y-52942380D02*
X169735238Y-52942380D01*
X169640000Y-52990000D01*
X169592380Y-53037619D01*
X169544761Y-53132857D01*
X169497142Y-53323333D01*
X169497142Y-53561428D01*
X169544761Y-53751904D01*
X169592380Y-53847142D01*
X169640000Y-53894761D01*
X169735238Y-53942380D01*
X169830476Y-53942380D01*
X169925714Y-53894761D01*
X169973333Y-53847142D01*
X170020952Y-53751904D01*
X170068571Y-53561428D01*
X170068571Y-53323333D01*
X170020952Y-53132857D01*
X169973333Y-53037619D01*
X169925714Y-52990000D01*
X169830476Y-52942380D01*
%TO.C,J8*%
X195103333Y-52942380D02*
X195103333Y-53656666D01*
X195150952Y-53799523D01*
X195246190Y-53894761D01*
X195389047Y-53942380D01*
X195484285Y-53942380D01*
X194484285Y-53370952D02*
X194579523Y-53323333D01*
X194627142Y-53275714D01*
X194674761Y-53180476D01*
X194674761Y-53132857D01*
X194627142Y-53037619D01*
X194579523Y-52990000D01*
X194484285Y-52942380D01*
X194293809Y-52942380D01*
X194198571Y-52990000D01*
X194150952Y-53037619D01*
X194103333Y-53132857D01*
X194103333Y-53180476D01*
X194150952Y-53275714D01*
X194198571Y-53323333D01*
X194293809Y-53370952D01*
X194484285Y-53370952D01*
X194579523Y-53418571D01*
X194627142Y-53466190D01*
X194674761Y-53561428D01*
X194674761Y-53751904D01*
X194627142Y-53847142D01*
X194579523Y-53894761D01*
X194484285Y-53942380D01*
X194293809Y-53942380D01*
X194198571Y-53894761D01*
X194150952Y-53847142D01*
X194103333Y-53751904D01*
X194103333Y-53561428D01*
X194150952Y-53466190D01*
X194198571Y-53418571D01*
X194293809Y-53370952D01*
%TO.C,J4*%
X126523333Y-52942380D02*
X126523333Y-53656666D01*
X126570952Y-53799523D01*
X126666190Y-53894761D01*
X126809047Y-53942380D01*
X126904285Y-53942380D01*
X125618571Y-53275714D02*
X125618571Y-53942380D01*
X125856666Y-52894761D02*
X126094761Y-53609047D01*
X125475714Y-53609047D01*
%TO.C,J2*%
X237843333Y-52942380D02*
X237843333Y-53656666D01*
X237890952Y-53799523D01*
X237986190Y-53894761D01*
X238129047Y-53942380D01*
X238224285Y-53942380D01*
X237414761Y-53037619D02*
X237367142Y-52990000D01*
X237271904Y-52942380D01*
X237033809Y-52942380D01*
X236938571Y-52990000D01*
X236890952Y-53037619D01*
X236843333Y-53132857D01*
X236843333Y-53228095D01*
X236890952Y-53370952D01*
X237462380Y-53942380D01*
X236843333Y-53942380D01*
%TO.C,J1*%
X107473333Y-52942380D02*
X107473333Y-53656666D01*
X107520952Y-53799523D01*
X107616190Y-53894761D01*
X107759047Y-53942380D01*
X107854285Y-53942380D01*
X106473333Y-53942380D02*
X107044761Y-53942380D01*
X106759047Y-53942380D02*
X106759047Y-52942380D01*
X106854285Y-53085238D01*
X106949523Y-53180476D01*
X107044761Y-53228095D01*
%TD*%
M02*
