M48
; DRILL file {KiCad (5.1.9)-1} date 03/04/21 15:36:59
; FORMAT={-:-/ absolute / inch / decimal}
; #@! TF.CreationDate,2021-03-04T15:36:59+01:00
; #@! TF.GenerationSoftware,Kicad,Pcbnew,(5.1.9)-1
FMAT,2
INCH
T1C0.0157
T2C0.0315
T3C0.0394
T4C0.1181
%
G90
G05
T1
X3.55Y-3.2
X4.35Y-2.65
X4.45Y-2.2
X4.55Y-2.6
X4.55Y-2.95
X5.0Y-2.75
X5.3Y-3.25
X5.4Y-2.4
X5.8Y-2.35
X5.95Y-2.2
X6.1Y-2.45
X6.45Y-2.55
X6.45Y-2.9
X6.45Y-3.05
X6.55Y-2.75
X6.65Y-4.4
X6.95Y-3.25
X7.5Y-2.2
X7.95Y-3.05
X8.4Y-3.15
X8.45Y-3.25
X9.0Y-2.2
X9.65Y-2.2
T2
X4.05Y-2.75
X4.05Y-3.05
X4.15Y-2.75
X4.15Y-3.05
X4.25Y-2.75
X4.25Y-3.05
X4.35Y-2.75
X4.35Y-3.05
X4.45Y-2.75
X4.45Y-3.05
X4.55Y-2.75
X4.55Y-3.05
X4.65Y-2.75
X4.65Y-3.05
X4.75Y-2.75
X4.75Y-3.05
X5.5667Y-2.75
X5.5667Y-3.05
X5.6667Y-2.75
X5.6667Y-3.05
X5.7667Y-2.75
X5.7667Y-3.05
X5.8667Y-2.75
X5.8667Y-3.05
X5.9667Y-2.75
X5.9667Y-3.05
X6.0667Y-2.75
X6.0667Y-3.05
X6.1667Y-2.75
X6.1667Y-3.05
X6.2667Y-2.75
X6.2667Y-3.05
X7.0833Y-2.75
X7.0833Y-3.05
X7.1833Y-2.75
X7.1833Y-3.05
X7.2833Y-2.75
X7.2833Y-3.05
X7.3833Y-2.75
X7.3833Y-3.05
X7.4833Y-2.75
X7.4833Y-3.05
X7.5833Y-2.75
X7.5833Y-3.05
X7.6833Y-2.75
X7.6833Y-3.05
X7.7833Y-2.75
X7.7833Y-3.05
X7.95Y-3.65
X7.95Y-4.05
X8.3Y-3.65
X8.3Y-4.05
X8.6Y-2.75
X8.6Y-3.05
X8.65Y-3.65
X8.65Y-4.05
X8.7Y-2.75
X8.7Y-3.05
X8.8Y-2.75
X8.8Y-3.05
X8.9Y-2.75
X8.9Y-3.05
X9.0Y-2.75
X9.0Y-3.05
X9.0Y-3.65
X9.0Y-4.05
X9.1Y-2.75
X9.1Y-3.05
X9.2Y-2.75
X9.2Y-3.05
X9.3Y-2.75
X9.3Y-3.05
X9.35Y-3.65
X9.35Y-4.05
T3
X3.05Y-3.8
X3.05Y-4.4
X3.15Y-3.8
X3.15Y-4.4
X3.25Y-3.8
X3.25Y-4.4
X3.35Y-3.8
X3.35Y-4.4
X3.45Y-3.8
X3.45Y-4.4
X3.55Y-3.8
X3.55Y-4.4
X3.65Y-3.8
X3.65Y-4.4
X3.75Y-3.8
X3.75Y-4.4
X3.85Y-3.8
X3.85Y-4.4
X3.95Y-3.8
X3.95Y-4.4
X4.05Y-3.8
X4.05Y-4.4
X4.15Y-3.8
X4.15Y-4.4
X4.25Y-3.8
X4.25Y-4.4
X4.35Y-3.8
X4.35Y-4.4
X4.45Y-3.8
X4.45Y-4.4
X5.35Y-4.0
X5.35Y-4.2
X5.45Y-4.0
X5.45Y-4.2
X5.55Y-4.0
X5.55Y-4.2
X5.65Y-4.0
X5.65Y-4.2
X5.75Y-4.0
X5.75Y-4.2
X5.85Y-4.0
X5.85Y-4.2
X5.95Y-4.0
X5.95Y-4.2
X6.05Y-4.0
X6.05Y-4.2
X6.15Y-4.0
X6.15Y-4.2
X6.25Y-4.0
X6.25Y-4.2
X6.35Y-4.0
X6.35Y-4.2
X6.45Y-4.0
X6.45Y-4.2
X6.55Y-4.0
X6.55Y-4.2
X6.65Y-4.0
X6.65Y-4.2
X6.75Y-4.0
X6.75Y-4.2
X6.85Y-4.0
X6.85Y-4.2
X6.95Y-4.0
X6.95Y-4.2
X7.05Y-4.0
X7.05Y-4.2
X7.15Y-4.0
X7.15Y-4.2
X7.25Y-4.0
X7.25Y-4.2
X7.95Y-4.45
X7.95Y-4.55
X8.3Y-4.45
X8.3Y-4.55
X8.65Y-4.45
X8.65Y-4.55
X9.0Y-4.45
X9.0Y-4.55
X9.35Y-4.45
X9.35Y-4.55
T4
X3.1Y-2.0
X3.1Y-4.65
X6.3Y-4.65
X9.7Y-2.0
X9.7Y-4.65
T2
G00X3.1717Y-2.2567
M15
G01X3.1717Y-2.3433
M16
G05
G00X3.1717Y-2.8067
M15
G01X3.1717Y-2.8933
M16
G05
G00X3.2386Y-2.489
M15
G01X3.3252Y-2.489
M16
G05
G00X3.2386Y-3.039
M15
G01X3.3252Y-3.039
M16
G05
G00X3.4Y-2.2488
M15
G01X3.4Y-2.3512
M16
G05
G00X3.4Y-2.7988
M15
G01X3.4Y-2.9012
M16
G05
T0
M30
